<?xml version="1.0" standalone="no"?>
<!DOCTYPE svg PUBLIC "-//W3C//DTD SVG 20010904//EN"
 "http://www.w3.org/TR/2001/REC-SVG-20010904/DTD/svg10.dtd">
<svg version="1.0" xmlns="http://www.w3.org/2000/svg"
 width="1600.000000pt" height="1600.000000pt" viewBox="0 0 1600.000000 1600.000000"
 preserveAspectRatio="xMidYMid meet">

<g transform="translate(0.000000,1600.000000) scale(0.100000,-0.100000)"
fill="#fff" stroke="none">
<path d="M13367 15829 c-348 -25 -685 -159 -972 -387 -38 -31 -296 -281 -573
-556 l-503 -500 1533 -1533 1533 -1533 375 377 c611 615 687 696 768 817 205
306 303 625 303 986 0 360 -98 680 -302 984 -59 90 -129 167 -409 455 -363
371 -452 456 -583 555 -323 244 -749 366 -1170 335z"/>
<path d="M2830 14024 c-621 -45 -1157 -242 -1633 -601 -685 -515 -1114 -1293
-1187 -2148 -14 -166 -14 -8354 0 -8520 61 -715 366 -1372 871 -1876 507 -505
1161 -808 1874 -869 162 -13 8325 -14 8485 0 429 37 841 160 1205 361 771 426
1321 1173 1494 2030 58 284 55 181 58 2008 4 1820 5 1766 -48 1923 -152 447
-607 744 -1057 689 -338 -41 -635 -255 -788 -566 -29 -60 -64 -148 -76 -195
l-22 -85 -6 -1665 -5 -1665 -27 -97 c-97 -354 -361 -618 -716 -716 l-97 -27
-4115 -3 c-3645 -2 -4125 0 -4203 13 -215 37 -388 126 -542 280 -129 128 -214
274 -264 454 l-26 96 -3 4125 c-2 3639 0 4135 13 4212 51 298 233 558 497 711
90 51 152 77 268 110 75 22 77 22 1735 27 l1660 5 77 22 c443 126 722 470 745
918 20 396 -207 773 -572 950 -60 30 -148 64 -195 77 l-85 23 -1635 1 c-899 0
-1655 -1 -1680 -2z"/>
<path d="M7945 11007 c-2055 -2061 -2673 -2686 -2731 -2762 -40 -55 -106 -162
-145 -238 -66 -130 -101 -230 -555 -1590 -266 -799 -491 -1484 -499 -1524 -37
-180 2 -382 103 -529 42 -61 156 -177 228 -232 101 -77 269 -132 404 -132 32
0 93 7 136 15 117 22 2958 972 3074 1028 120 57 249 138 342 215 40 32 1267
1251 2726 2707 l2653 2649 -1528 1528 c-840 840 -1533 1528 -1540 1528 -6 0
-1207 -1198 -2668 -2663z"/>
</g>
</svg>
